# xmcd
#
# Track frame offsets: 
#        182
#        17825
#        34452
#        53160
#        69835
#        102655
#        125415
#        145045
#        176172
#        202287
#        219145
#        235162
#        253225
#
# Disc length: 3561 seconds
#
# Revision: 0
# Processed by: cddbd v1.5.2PL0 Copyright (c) Steve Scherf et al.
# Submitted via: ExactAudioCopy v0.99pb3
#
DISCID=c40de70d
DTITLE=Big Joe Duskin - Live At Dollar Bill's Saloon
DYEAR=1997
DGENRE=Blues
TTITLE0=Leavin' In The Mornin'
TTITLE1=Messin' With The Kid
TTITLE2=Key To The Highway
TTITLE3=On Broadway
TTITLE4=Blue Sabbath Has Fallen
TTITLE5=The Thrill Is Gone
TTITLE6=Beat Me Daddy, Eight To The Bar
TTITLE7=Rocks In My Pillow
TTITLE8=Boogie On St. Louis Blues
TTITLE9=Help, Help Me Somebody
TTITLE10=Roll 'Em Pete
TTITLE11=Got My Mojo Workin'
TTITLE12=You're Gonna Miss Me
EXTD=
EXTT0=
EXTT1=
EXTT2=
EXTT3=
EXTT4=
EXTT5=
EXTT6=
EXTT7=
EXTT8=
EXTT9=
EXTT10=
EXTT11=
EXTT12=
PLAYORDER=
